<svg t="1669059091361" class="icon" viewBox="0 0 1024 1024" version="1.1" xmlns="http://www.w3.org/2000/svg" p-id="28439" width="200" height="200"><path d="M304.6182395 715.85196457m-39.88408048 0a39.88408046 39.88408046 0 1 0 79.76816096 0 39.88408046 39.88408046 0 1 0-79.76816096 0Z" fill="#6EC8E5" p-id="28440"></path><path d="M512.90176871 9.01743433C238.14477247 9.01743433 14.35076766 232.81143914 14.35076766 507.56843538s223.79400479 498.55100105 498.55100105 498.55100223 498.55100105-223.79400479 498.55100223-498.55100223S787.65876495 9.01743433 512.90176871 9.01743433z m22.15782194 587.18229002l-57.61033778 57.61033779-119.65224021 119.65224141c-31.02095121 31.02095121-79.76815974 31.02095121-110.78911095 0s-31.02095121-79.76815974 0-110.78911214l119.65224021-119.6522402 57.61033779-57.61033779c-26.58938658-68.68924877-11.07891096-150.67319141 44.31564511-206.06774748 57.61033779-57.61033779 144.02584506-70.90503167 214.93087552-42.09986219l-79.76815972 79.76815974v95.27863655l53.17877315 53.17877315 86.41550728 86.41550727c-55.39455608 55.39455608-137.37849872 70.90503167-208.2835304 44.31564389z m239.30448161-86.41550607l-81.98394265-81.98394263 90.8470707-90.84707193c24.37360488 55.39455608 22.15782194 119.65224019-8.86312805 172.83101456z" fill="#6EC8E5" p-id="28441"></path></svg>