<svg t="1669059133504" class="icon" viewBox="0 0 1024 1024" version="1.1" xmlns="http://www.w3.org/2000/svg" p-id="28749" width="200" height="200"><path d="M450.03137283 139.12580346C211.72831407 139.12580346 18.66666666 332.24674469 18.66666666 570.49050963c0 238.18447013 193.09129383 431.36470617 431.36470617 431.36470617 119.09223506 0 226.91858864-48.32470617 304.97929383-126.38541234L450.03137283 570.46086321V139.12580346z" fill="#31EC7C" p-id="28750"></path><path d="M450.03137283 570.49050963L754.98101925 875.46980345a430.08988247 430.08988247 0 0 0 126.32611754-305.00894025H450.03137283z" fill="#F83CB6" p-id="28751"></path><path d="M450.03137283 13.33333333v125.82211753c238.18447013 0 431.30541136 193.12094123 431.30541136 431.33505877h125.79247111C1007.1292553 262.7540395 757.70854913 13.33333333 450.03137283 13.33333333" fill="#F9D11F" p-id="28752"></path><path d="M450.03137283 139.12580346v431.36470617h431.30541136c0-238.24376494-193.12094123-431.36470617-431.33505876-431.36470617" fill="#FF7E50" p-id="28753"></path></svg>