<svg t="1669058938084" class="icon" viewBox="0 0 1024 1024" version="1.1" xmlns="http://www.w3.org/2000/svg" p-id="28281" width="200" height="200"><path d="M554.49066666 134.448L692.58666666 267.616l37.74400001 23.968v172.144c18.704 3.024 37.07200001 8.064 54.432 14.672V74.75199999c0-35.50399999-28.784-64.176-64.17600001-64.17599999H192.95466667c-35.50399999 0-64.176 28.784-64.17600001 64.17599999v11.98400001c3.24799999-0.448 6.384-0.78400001 9.74400001-0.784h387.072l28.89599999 48.496z" fill="#F43B3B" p-id="28282"></path><path d="M394.66666667 747.536c0-159.152 129.024-287.952 287.952-287.952 16.24 0 32.144 1.344 47.6 3.92V291.36l-37.744-23.968-137.98400001-132.944-29.00799999-48.384H138.52266667c-35.50399999 0-64.176 28.784-64.17600001 64.176v721.28c0 35.50399999 28.784 64.176 64.17600001 64.176h326.368c-43.792-50.288-70.224-116.14399999-70.224-188.16z" fill="#FF6161" p-id="28283"></path><path d="M524.81066667 86.064l205.74399999 205.744H578.01066667c-30.128 0-53.20000001-23.072-53.2-53.19999999V86.064zM800.89066667 654.016l-137.648 137.76-83.664-83.664-26.32000001 26.32 109.98400001 109.98400001 163.968-163.96800001-26.32-26.432z" fill="#FFA4A4" p-id="28284"></path><path d="M873.35466667 551.648c-51.072-50.96-118.944-79.072-190.96-79.072-72.24 0-140.112 28.112-191.184 79.072s-79.184 118.608-79.18400001 190.736c0 52.528 15.12 103.376 43.79200001 147.168 8.624 13.104 26.43199999 16.91200001 39.648 8.28800001 6.384-4.144 10.86400001-10.64 12.43199999-18.144 1.568-7.504 0.112-15.12-4.032-21.50400001-22.512-34.384-34.384-74.592-34.384-116.032 0-117.264 95.424-212.576 213.024-212.576 117.376 0 213.024 95.424 213.02400001 212.576 0 117.264-95.424 212.576-213.02400001 212.57599999-38.864 0-76.944-10.528-109.98399999-30.46399999-13.552-8.064-31.02400001-3.80800001-39.312 9.632-3.92 6.384-5.152 14.224-3.24800001 21.504 1.79200001 7.392 6.384 13.664 12.99200001 17.584 42 25.42399999 90.272 38.752 139.664 38.75200001 72.24 0 140.112-28.112 190.96-79.07200001 51.072-50.96 79.184-118.608 79.184-190.736-0.112-71.68-28.336-139.552-79.408-190.288z" fill="#FFA4A4" p-id="28285"></path><path d="M521.56266667 391.04h-359.52000001c-1.68 0-3.024-1.344-3.024-3.024v-33.04000001c0-1.68 1.344-3.024 3.024-3.024h359.63200001c1.68 0 3.024 1.344 3.024 3.024v33.04000001c0.112 1.568-1.456 3.024-3.136 3.024z m-101.584 159.376H157.33866666c-1.68 0-3.024-1.344-3.024-3.024V514.23999999c0-1.68 1.344-3.024 3.024-3.024h262.64000001c1.68 0 3.024 1.344 3.024 3.024v33.04000001c0.112 1.568-1.12 3.136-3.024 3.136z m-59.472 158.032H157.33866666c-1.68 0-3.024-1.344-3.024-3.024v-33.04c0-1.68 1.344-3.024 3.024-3.024h203.16800001c1.68 0 3.024 1.344 3.024 3.024v33.04c0.22399999 1.68-1.12 3.024-3.024 3.024z" fill="#FFFFFF" p-id="28286"></path></svg>