<svg t="1669059107573" class="icon" viewBox="0 0 1024 1024" version="1.1" xmlns="http://www.w3.org/2000/svg" p-id="28594" width="200" height="200"><path d="M512 16.6409675a495.3590325 495.3590325 0 0 0-495.3590325 495.3590325 495.3590325 495.3590325 0 0 0 495.3590325 495.3590325 495.3590325 495.3590325 0 0 0 495.3590325-495.3590325 495.3590325 495.3590325 0 0 0-495.3590325-495.3590325z" fill="#05CFA4" p-id="28595"></path><path d="M540.8015896 397.00593874a48.68671662 48.68671662 0 1 1 0-97.30266654 48.68671662 48.68671662 0 0 1 0 97.30266654zM374.43172039 541.08465148c-23.70646785 19.67282988 65.24586086-91.99524861 97.09037038-111.80960991 31.8445095-19.74359559 88.24467349-4.8120589 80.46045943 40.90250256-7.7842131 45.78532813-57.24935062 212.86285254-68.50107694 252.63310657-11.32249204 39.77025403 69.35026455-36.86886555 85.27251833-46.56374905 15.92225475-9.62411877-60.85839529 90.15534392-97.23190083 111.17272042-36.37350652 21.01737651-90.72146866-7.43038548-79.96510137-45.50226528 10.827133-38.14264551 50.95121464-180.45221926 67.36882842-236.92314895 16.41761379-56.54169542-60.85839529 16.41761379-84.49409742 36.09044364z" fill="#FFFFFF" p-id="28596"></path></svg>