<svg t="1669059145274" class="icon" viewBox="0 0 1024 1024" version="1.1" xmlns="http://www.w3.org/2000/svg" p-id="28906" width="200" height="200"><path d="M512 1007.3590325C91.10333726 1007.3590325 16.6409675 932.88345348 16.6409675 512S91.10333726 16.6409675 512 16.6409675 1007.3590325 91.10333726 1007.3590325 512 932.88345348 1007.3590325 512 1007.3590325z m0-965.95011338C112.14618896 41.40891912 41.40891912 112.14618896 41.40891912 512S112.14618896 982.59108088 512 982.59108088 982.59108088 911.84060178 982.59108088 512 911.84060178 41.40891912 512 41.40891912z" fill="#EAC1B2" p-id="28907"></path><path d="M287.43723828 776.19148432c-97.7508494 0-172.01507556-5.09889596-228.38032834-20.46163107C45.9265935 692.62771761 41.40891912 612.78905083 41.40891912 512 41.40891912 112.14618896 112.14618896 41.40891912 512 41.40891912c30.38202098 0 58.67692891 0.47554468 85.38668795 1.41342476C666.27461708 97.29862724 683.72446428 198.2065652 683.72446428 379.90425832c0 336.71204668-59.57517933 396.28722601-396.287226 396.287226z" fill="#EAC1B2" p-id="28908"></path><path d="M545.88255783 813.52174101L308.45367147 676.44598954V402.36053382l237.42888636-137.1417987L783.29823492 402.36053382v274.08545572z" fill="#EAC1B2" p-id="28909"></path><path d="M773.80055076 694.5298963l-37.10569362 21.3995102a9.40521651 9.40521651 0 0 1-4.78186618 1.3209571 9.59015087 9.59015087 0 0 1-4.78186522-17.84613442l37.07927414-21.42592968a33.60515676 33.60515676 0 0 0 16.73653116-28.99501473v-272.11722884a33.56552805 33.56552805 0 0 0-16.72332094-28.95538697l-235.77769022-136.05861393a33.51269006 33.51269006 0 0 0-33.45985113 0L412.9281935 259.22158779a45.26921046 45.26921046 0 0 1 2.32488538 13.64549078 46.23351002 46.23351002 0 1 1-11.75652136-30.31597278l81.89936036-47.25064756a52.83829648 52.83829648 0 0 1 52.6137334 0l235.77769022 136.05861491a52.83829648 52.83829648 0 0 1 26.31347181 45.54661151v272.11722884a52.73262053 52.73262053 0 0 1-26.30026255 45.50698281zM392.82322189 260.30477352a9.0221395 9.0221395 0 0 1-0.46233542-0.8454134 25.66620299 25.66620299 0 1 0 3.76472865 13.42092771 26.24742361 26.24742361 0 0 0-3.30239323-12.57551431z m339.07655982 456.90596136z m-101.99112272-241.73520786c0-0.19814361-0.11888617-0.30382053-0.11888617-0.47554468a8.78436717 8.78436717 0 0 1 2.41735208-7.9125343 8.25598355 8.25598355 0 0 1 3.64584248-2.12674176 8.54659482 8.54659482 0 0 1 8.86362461 2.12674176l46.60337778 46.57695831-3.35523218 3.35523216-55.16318185 55.12355314 1.54552018-1.54552018-13.20957388-5.66690733 53.59124221-53.59124317s-22.2713421-22.73367752-30.38202002-30.38202002c-2.98536345-2.8136393 5.61406935 54.15925454-45.61265971 60.764041-27.87220124 3.59300451-52.69299181-22.35059955-53.22137446-53.22137445-0.63405956-37.34346595 49.93219048-49.13961602 45.61265972-53.22137446-22.91861092-21.65049179-53.22137446-53.22137446-53.22137446-53.22137444L401.03957672 518.86897827l80.44630688 75.96826122-25.62657427 25.6001548a28.29490794 28.29490794 0 1 0 5.19136266 5.50839244h0.10567691l25.83792714-25.83792713 50.87007057 47.95075434 83.22031746-83.22031746-7.22563773 7.22563773h18.87648217l-96.42989231 96.3506339-49.66799867-49.73404687a8.81078568 8.81078568 0 0 0-14.92681916 7.92574452c0 0.17172414 0.0924667 0.27740106 0.09246766 0.47554467a4.54409385 4.54409385 0 0 0 0.75294573 1.88896944 38.3077655 38.3077655 0 1 1-22.7865155-22.99786933 5.91788892 5.91788892 0 0 0 1.3209571 0.48875488 8.81078568 8.81078568 0 0 0 8.74473845-14.7154663l-74.89828572-74.85865698 63.53805158-63.51163212a8.81078568 8.81078568 0 0 0-8.00500197-14.91360991c-0.19814361 0-0.27740106 0.10567691-0.47554466 0.10567691A4.57051236 4.57051236 0 0 0 438.02638416 439.34734222a38.3077655 38.3077655 0 1 1 23.01107858-22.78651549 8.81078568 8.81078568 0 0 0 14.25313088 10.0128566l64.51556039-64.47593167 78.0553733 78.01574554a8.96930056 8.96930056 0 0 1 0 12.50946709 8.81078568 8.81078568 0 0 1-8.73152821 2.20599825 3.96287226 3.96287226 0 0 1-1.32095711-0.48875392 38.18887933 38.18887933 0 0 0-40.42129705 8.85041439 38.3077655 38.3077655 0 1 0 63.24744127 14.14745397 5.01963851 5.01963851 0 0 1-0.73973648-1.8361305zM296.30086288 326.51115877l-37.1056936 21.42592967a33.56552805 33.56552805 0 0 0-16.67048296 28.95538696v272.11722788a33.55231879 33.55231879 0 0 0 16.72332093 28.94217771l235.77769022 136.05861394a33.55231879 33.55231879 0 0 0 33.45985113 0l82.00503632-47.32990404a45.28242067 45.28242067 0 0 1-2.31167517-13.63228057 46.23351002 46.23351002 0 1 1 11.75652136 30.31597279l-81.89936036 47.2506466a52.83829648 52.83829648 0 0 1-52.61373436 0l-235.79089947-136.05861395a52.71941032 52.71941032 0 0 1-26.31347181-45.53340227v-272.11722884a52.83829648 52.83829648 0 0 1 26.31347181-45.54661151l37.0792751-21.4655584a9.57694161 9.57694161 0 1 1 9.59015086 16.61764403z m357.60959275 453.0883957a26.65692105 26.65692105 0 1 0-25.66620299-26.57766362 26.65692105 26.65692105 0 0 0 25.66620299 26.63050159z" fill="#9B3A18" p-id="28910"></path></svg>